<svg width="375" height="95" viewBox="0 0 375 95" fill="none" xmlns="http://www.w3.org/2000/svg">
<circle cx="47.5" cy="47.5" r="47.5" fill="url(#paint0_linear_4_6)"/>
<path d="M48.3 68.48H70.14V74H41.88V34.4H48.3V68.48ZM91.298 33.8C94.858 33.8 97.938 34.48 100.538 35.84C103.138 37.16 105.338 39.12 107.138 41.72L102.818 45.86C101.298 43.54 99.578 41.88 97.658 40.88C95.778 39.84 93.538 39.32 90.938 39.32C89.018 39.32 87.438 39.58 86.198 40.1C84.958 40.62 84.038 41.32 83.438 42.2C82.878 43.04 82.598 44 82.598 45.08C82.598 46.32 83.018 47.4 83.858 48.32C84.738 49.24 86.358 49.96 88.718 50.48L96.758 52.28C100.598 53.12 103.318 54.4 104.918 56.12C106.518 57.84 107.318 60.02 107.318 62.66C107.318 65.1 106.658 67.22 105.338 69.02C104.018 70.82 102.178 72.2 99.818 73.16C97.498 74.12 94.758 74.6 91.598 74.6C88.798 74.6 86.278 74.24 84.038 73.52C81.798 72.8 79.838 71.82 78.158 70.58C76.478 69.34 75.098 67.92 74.018 66.32L78.458 61.88C79.298 63.28 80.358 64.54 81.638 65.66C82.918 66.74 84.398 67.58 86.078 68.18C87.798 68.78 89.698 69.08 91.778 69.08C93.618 69.08 95.198 68.86 96.518 68.42C97.878 67.98 98.898 67.34 99.578 66.5C100.298 65.62 100.658 64.58 100.658 63.38C100.658 62.22 100.258 61.2 99.458 60.32C98.698 59.44 97.258 58.76 95.138 58.28L86.438 56.3C84.038 55.78 82.058 55.04 80.498 54.08C78.938 53.12 77.778 51.96 77.018 50.6C76.258 49.2 75.878 47.64 75.878 45.92C75.878 43.68 76.478 41.66 77.678 39.86C78.918 38.02 80.698 36.56 83.018 35.48C85.338 34.36 88.098 33.8 91.298 33.8Z" fill="black"/>
<path d="M142.12 34.4C144.96 34.4 147.4 34.9 149.44 35.9C151.52 36.9 153.14 38.32 154.3 40.16C155.46 42 156.04 44.22 156.04 46.82C156.04 49.38 155.46 51.6 154.3 53.48C153.14 55.32 151.52 56.74 149.44 57.74C147.4 58.74 144.96 59.24 142.12 59.24H133.3V74H126.88V34.4H142.12ZM141.1 53.72C143.94 53.72 146.02 53.14 147.34 51.98C148.7 50.78 149.38 49.06 149.38 46.82C149.38 44.54 148.7 42.82 147.34 41.66C146.02 40.46 143.94 39.86 141.1 39.86H133.3V53.72H141.1ZM176.153 74.6C173.153 74.6 170.513 73.98 168.233 72.74C165.953 71.5 164.173 69.72 162.893 67.4C161.653 65.04 161.033 62.24 161.033 59C161.033 55.76 161.653 52.98 162.893 50.66C164.173 48.3 165.933 46.5 168.173 45.26C170.413 44.02 172.953 43.4 175.793 43.4C178.713 43.4 181.193 44 183.233 45.2C185.273 46.4 186.833 48.04 187.913 50.12C188.993 52.2 189.533 54.56 189.533 57.2C189.533 57.92 189.513 58.6 189.473 59.24C189.433 59.88 189.373 60.44 189.293 60.92H165.173V56H186.473L183.293 56.96C183.293 54.24 182.613 52.16 181.253 50.72C179.893 49.24 178.033 48.5 175.673 48.5C173.953 48.5 172.453 48.9 171.173 49.7C169.893 50.5 168.913 51.7 168.233 53.3C167.553 54.86 167.213 56.78 167.213 59.06C167.213 61.3 167.573 63.2 168.293 64.76C169.013 66.32 170.033 67.5 171.353 68.3C172.673 69.1 174.233 69.5 176.033 69.5C178.033 69.5 179.653 69.12 180.893 68.36C182.133 67.6 183.113 66.54 183.833 65.18L188.933 67.58C188.213 69.02 187.233 70.28 185.993 71.36C184.793 72.4 183.353 73.2 181.673 73.76C179.993 74.32 178.153 74.6 176.153 74.6ZM197.64 74V44H203.1L203.7 49.4C204.5 47.44 205.68 45.96 207.24 44.96C208.84 43.92 210.8 43.4 213.12 43.4C213.72 43.4 214.32 43.46 214.92 43.58C215.52 43.66 216.02 43.8 216.42 44L215.52 49.64C215.08 49.48 214.58 49.36 214.02 49.28C213.5 49.16 212.78 49.1 211.86 49.1C210.62 49.1 209.4 49.44 208.2 50.12C207 50.76 206 51.74 205.2 53.06C204.44 54.38 204.06 56.06 204.06 58.1V74H197.64ZM232.888 74.6C229.888 74.6 227.148 74.02 224.668 72.86C222.188 71.7 220.228 70.06 218.788 67.94L223.228 64.1C224.108 65.74 225.368 67.06 227.008 68.06C228.688 69.02 230.688 69.5 233.008 69.5C234.848 69.5 236.308 69.18 237.388 68.54C238.468 67.9 239.008 67 239.008 65.84C239.008 65.08 238.748 64.42 238.228 63.86C237.748 63.26 236.808 62.8 235.408 62.48L229.108 61.16C225.908 60.52 223.628 59.5 222.268 58.1C220.908 56.66 220.228 54.84 220.228 52.64C220.228 51 220.708 49.48 221.668 48.08C222.628 46.68 224.028 45.56 225.868 44.72C227.748 43.84 229.988 43.4 232.588 43.4C235.588 43.4 238.148 43.94 240.268 45.02C242.388 46.06 244.008 47.56 245.128 49.52L240.688 53.24C239.928 51.64 238.808 50.46 237.328 49.7C235.848 48.9 234.308 48.5 232.708 48.5C231.428 48.5 230.328 48.66 229.408 48.98C228.488 49.3 227.788 49.74 227.308 50.3C226.828 50.86 226.588 51.52 226.588 52.28C226.588 53.08 226.888 53.78 227.488 54.38C228.088 54.98 229.168 55.44 230.728 55.76L237.568 57.2C240.448 57.76 242.468 58.72 243.628 60.08C244.828 61.4 245.428 63.02 245.428 64.94C245.428 66.86 244.928 68.56 243.928 70.04C242.928 71.48 241.488 72.6 239.608 73.4C237.728 74.2 235.488 74.6 232.888 74.6ZM266.207 43.4C269.127 43.4 271.707 44.02 273.947 45.26C276.187 46.5 277.927 48.3 279.167 50.66C280.447 52.98 281.087 55.76 281.087 59C281.087 62.24 280.447 65.04 279.167 67.4C277.927 69.72 276.187 71.5 273.947 72.74C271.707 73.98 269.127 74.6 266.207 74.6C263.287 74.6 260.707 73.98 258.467 72.74C256.227 71.5 254.467 69.72 253.187 67.4C251.907 65.04 251.267 62.24 251.267 59C251.267 55.76 251.907 52.98 253.187 50.66C254.467 48.3 256.227 46.5 258.467 45.26C260.707 44.02 263.287 43.4 266.207 43.4ZM266.207 48.44C264.407 48.44 262.867 48.86 261.587 49.7C260.347 50.5 259.387 51.68 258.707 53.24C258.027 54.8 257.687 56.72 257.687 59C257.687 61.24 258.027 63.16 258.707 64.76C259.387 66.32 260.347 67.52 261.587 68.36C262.867 69.16 264.407 69.56 266.207 69.56C268.007 69.56 269.527 69.16 270.767 68.36C272.007 67.52 272.967 66.32 273.647 64.76C274.327 63.16 274.667 61.24 274.667 59C274.667 56.72 274.327 54.8 273.647 53.24C272.967 51.68 272.007 50.5 270.767 49.7C269.527 48.86 268.007 48.44 266.207 48.44ZM289.164 74V44H294.864L295.284 51.8L294.444 50.96C295.004 49.24 295.804 47.82 296.844 46.7C297.924 45.54 299.184 44.7 300.624 44.18C302.104 43.66 303.664 43.4 305.304 43.4C307.424 43.4 309.324 43.82 311.004 44.66C312.724 45.46 314.084 46.68 315.084 48.32C316.084 49.96 316.584 52.04 316.584 54.56V74H310.164V56.54C310.164 53.58 309.544 51.54 308.304 50.42C307.104 49.26 305.584 48.68 303.744 48.68C302.424 48.68 301.144 49 299.904 49.64C298.664 50.24 297.624 51.22 296.784 52.58C295.984 53.94 295.584 55.76 295.584 58.04V74H289.164ZM343.652 54.74C343.652 52.74 343.092 51.2 341.972 50.12C340.892 49 339.392 48.44 337.472 48.44C335.672 48.44 334.132 48.86 332.852 49.7C331.572 50.54 330.632 51.9 330.032 53.78L324.632 51.5C325.392 49.06 326.872 47.1 329.072 45.62C331.312 44.14 334.192 43.4 337.712 43.4C340.112 43.4 342.232 43.8 344.072 44.6C345.912 45.36 347.352 46.52 348.392 48.08C349.472 49.64 350.012 51.64 350.012 54.08V67.46C350.012 68.94 350.752 69.68 352.232 69.68C352.952 69.68 353.652 69.58 354.332 69.38L353.972 73.82C353.052 74.26 351.892 74.48 350.492 74.48C349.212 74.48 348.052 74.26 347.012 73.82C346.012 73.34 345.212 72.64 344.612 71.72C344.052 70.76 343.772 69.58 343.772 68.18V67.76L345.092 67.7C344.732 69.26 343.992 70.56 342.872 71.6C341.752 72.6 340.452 73.36 338.972 73.88C337.492 74.36 335.992 74.6 334.472 74.6C332.592 74.6 330.892 74.3 329.372 73.7C327.892 73.1 326.712 72.2 325.832 71C324.992 69.76 324.572 68.24 324.572 66.44C324.572 64.2 325.292 62.36 326.732 60.92C328.212 59.48 330.292 58.5 332.972 57.98L344.612 55.7L344.552 60.2L336.092 61.94C334.412 62.26 333.152 62.72 332.312 63.32C331.472 63.92 331.052 64.8 331.052 65.96C331.052 67.08 331.472 67.98 332.312 68.66C333.192 69.3 334.352 69.62 335.792 69.62C336.792 69.62 337.752 69.5 338.672 69.26C339.632 69.02 340.492 68.64 341.252 68.12C342.012 67.56 342.592 66.86 342.992 66.02C343.432 65.14 343.652 64.1 343.652 62.9V54.74ZM366.771 30.5V65.6C366.771 67.08 367.031 68.1 367.551 68.66C368.071 69.22 368.931 69.5 370.131 69.5C370.851 69.5 371.451 69.46 371.931 69.38C372.451 69.26 373.091 69.06 373.851 68.78L373.131 73.58C372.451 73.9 371.671 74.14 370.791 74.3C369.911 74.5 369.031 74.6 368.151 74.6C365.471 74.6 363.491 73.92 362.211 72.56C360.971 71.16 360.351 69.02 360.351 66.14V30.5H366.771Z" fill="#9DA1A6"/>
<defs>
<linearGradient id="paint0_linear_4_6" x1="20.5" y1="10.5" x2="76.5" y2="83.5" gradientUnits="userSpaceOnUse">
<stop stop-color="#57EA92"/>
<stop offset="1" stop-color="#84E48E"/>
</linearGradient>
</defs>
</svg>
