<svg width="338" height="79" viewBox="0 0 338 79" fill="none" xmlns="http://www.w3.org/2000/svg">
<path d="M13.44 52.34H34.32V59H5.16V19.4H13.44V52.34ZM56.8552 18.8C60.4552 18.8 63.6152 19.42 66.3352 20.66C69.0552 21.9 71.3752 23.74 73.2952 26.18L68.6752 31.52C67.0352 29.44 65.2352 27.92 63.2752 26.96C61.3552 25.96 59.1152 25.46 56.5552 25.46C54.8752 25.46 53.4752 25.68 52.3552 26.12C51.2752 26.56 50.4752 27.14 49.9552 27.86C49.4752 28.58 49.2352 29.38 49.2352 30.26C49.2352 31.34 49.6552 32.26 50.4952 33.02C51.3352 33.74 52.7752 34.34 54.8152 34.82L62.1952 36.5C66.1152 37.38 68.9152 38.7 70.5952 40.46C72.3152 42.18 73.1752 44.42 73.1752 47.18C73.1752 49.78 72.4952 52.02 71.1352 53.9C69.7752 55.74 67.8752 57.16 65.4352 58.16C62.9952 59.12 60.1952 59.6 57.0352 59.6C54.2752 59.6 51.7352 59.28 49.4152 58.64C47.1352 57.96 45.0952 57.04 43.2952 55.88C41.4952 54.72 39.9952 53.38 38.7952 51.86L43.4752 46.28C44.3952 47.56 45.5352 48.7 46.8952 49.7C48.2552 50.7 49.7952 51.5 51.5152 52.1C53.2752 52.66 55.1152 52.94 57.0352 52.94C58.6752 52.94 60.0552 52.76 61.1752 52.4C62.3352 52 63.1952 51.46 63.7552 50.78C64.3552 50.06 64.6552 49.2 64.6552 48.2C64.6552 47.16 64.2952 46.28 63.5752 45.56C62.8952 44.8 61.6152 44.22 59.7352 43.82L51.6952 42.02C49.3752 41.46 47.3752 40.74 45.6952 39.86C44.0552 38.94 42.7952 37.78 41.9152 36.38C41.0752 34.94 40.6552 33.24 40.6552 31.28C40.6552 28.92 41.2952 26.8 42.5752 24.92C43.8552 23.04 45.6952 21.56 48.0952 20.48C50.5352 19.36 53.4552 18.8 56.8552 18.8Z" fill="black"/>
<path d="M109.12 19.4C111.96 19.4 114.4 19.9 116.44 20.9C118.52 21.9 120.14 23.32 121.3 25.16C122.46 27 123.04 29.22 123.04 31.82C123.04 34.38 122.46 36.6 121.3 38.48C120.14 40.32 118.52 41.74 116.44 42.74C114.4 43.74 111.96 44.24 109.12 44.24H100.3V59H93.88V19.4H109.12ZM108.1 38.72C110.94 38.72 113.02 38.14 114.34 36.98C115.7 35.78 116.38 34.06 116.38 31.82C116.38 29.54 115.7 27.82 114.34 26.66C113.02 25.46 110.94 24.86 108.1 24.86H100.3V38.72H108.1ZM142.553 59.6C139.553 59.6 136.913 58.98 134.633 57.74C132.353 56.5 130.573 54.72 129.293 52.4C128.053 50.04 127.433 47.24 127.433 44C127.433 40.76 128.053 37.98 129.293 35.66C130.573 33.3 132.333 31.5 134.573 30.26C136.813 29.02 139.353 28.4 142.193 28.4C145.113 28.4 147.593 29 149.633 30.2C151.673 31.4 153.233 33.04 154.313 35.12C155.393 37.2 155.933 39.56 155.933 42.2C155.933 42.92 155.913 43.6 155.873 44.24C155.833 44.88 155.773 45.44 155.693 45.92H131.573V41H152.873L149.693 41.96C149.693 39.24 149.013 37.16 147.653 35.72C146.293 34.24 144.433 33.5 142.073 33.5C140.353 33.5 138.853 33.9 137.573 34.7C136.293 35.5 135.313 36.7 134.633 38.3C133.953 39.86 133.613 41.78 133.613 44.06C133.613 46.3 133.973 48.2 134.693 49.76C135.413 51.32 136.433 52.5 137.753 53.3C139.073 54.1 140.633 54.5 142.433 54.5C144.433 54.5 146.053 54.12 147.293 53.36C148.533 52.6 149.513 51.54 150.233 50.18L155.333 52.58C154.613 54.02 153.633 55.28 152.393 56.36C151.193 57.4 149.753 58.2 148.073 58.76C146.393 59.32 144.553 59.6 142.553 59.6ZM163.44 59V29H168.9L169.5 34.4C170.3 32.44 171.48 30.96 173.04 29.96C174.64 28.92 176.6 28.4 178.92 28.4C179.52 28.4 180.12 28.46 180.72 28.58C181.32 28.66 181.82 28.8 182.22 29L181.32 34.64C180.88 34.48 180.38 34.36 179.82 34.28C179.3 34.16 178.58 34.1 177.66 34.1C176.42 34.1 175.2 34.44 174 35.12C172.8 35.76 171.8 36.74 171 38.06C170.24 39.38 169.86 41.06 169.86 43.1V59H163.44ZM198.088 59.6C195.088 59.6 192.348 59.02 189.868 57.86C187.388 56.7 185.428 55.06 183.988 52.94L188.428 49.1C189.308 50.74 190.568 52.06 192.208 53.06C193.888 54.02 195.888 54.5 198.208 54.5C200.048 54.5 201.508 54.18 202.588 53.54C203.668 52.9 204.208 52 204.208 50.84C204.208 50.08 203.948 49.42 203.428 48.86C202.948 48.26 202.008 47.8 200.608 47.48L194.308 46.16C191.108 45.52 188.828 44.5 187.468 43.1C186.108 41.66 185.428 39.84 185.428 37.64C185.428 36 185.908 34.48 186.868 33.08C187.828 31.68 189.228 30.56 191.068 29.72C192.948 28.84 195.188 28.4 197.788 28.4C200.788 28.4 203.348 28.94 205.468 30.02C207.588 31.06 209.208 32.56 210.328 34.52L205.888 38.24C205.128 36.64 204.008 35.46 202.528 34.7C201.048 33.9 199.508 33.5 197.908 33.5C196.628 33.5 195.528 33.66 194.608 33.98C193.688 34.3 192.988 34.74 192.508 35.3C192.028 35.86 191.788 36.52 191.788 37.28C191.788 38.08 192.088 38.78 192.688 39.38C193.288 39.98 194.368 40.44 195.928 40.76L202.768 42.2C205.648 42.76 207.668 43.72 208.828 45.08C210.028 46.4 210.628 48.02 210.628 49.94C210.628 51.86 210.128 53.56 209.128 55.04C208.128 56.48 206.688 57.6 204.808 58.4C202.928 59.2 200.688 59.6 198.088 59.6ZM230.807 28.4C233.727 28.4 236.307 29.02 238.547 30.26C240.787 31.5 242.527 33.3 243.767 35.66C245.047 37.98 245.687 40.76 245.687 44C245.687 47.24 245.047 50.04 243.767 52.4C242.527 54.72 240.787 56.5 238.547 57.74C236.307 58.98 233.727 59.6 230.807 59.6C227.887 59.6 225.307 58.98 223.067 57.74C220.827 56.5 219.067 54.72 217.787 52.4C216.507 50.04 215.867 47.24 215.867 44C215.867 40.76 216.507 37.98 217.787 35.66C219.067 33.3 220.827 31.5 223.067 30.26C225.307 29.02 227.887 28.4 230.807 28.4ZM230.807 33.44C229.007 33.44 227.467 33.86 226.187 34.7C224.947 35.5 223.987 36.68 223.307 38.24C222.627 39.8 222.287 41.72 222.287 44C222.287 46.24 222.627 48.16 223.307 49.76C223.987 51.32 224.947 52.52 226.187 53.36C227.467 54.16 229.007 54.56 230.807 54.56C232.607 54.56 234.127 54.16 235.367 53.36C236.607 52.52 237.567 51.32 238.247 49.76C238.927 48.16 239.267 46.24 239.267 44C239.267 41.72 238.927 39.8 238.247 38.24C237.567 36.68 236.607 35.5 235.367 34.7C234.127 33.86 232.607 33.44 230.807 33.44ZM253.164 59V29H258.864L259.284 36.8L258.444 35.96C259.004 34.24 259.804 32.82 260.844 31.7C261.924 30.54 263.184 29.7 264.624 29.18C266.104 28.66 267.664 28.4 269.304 28.4C271.424 28.4 273.324 28.82 275.004 29.66C276.724 30.46 278.084 31.68 279.084 33.32C280.084 34.96 280.584 37.04 280.584 39.56V59H274.164V41.54C274.164 38.58 273.544 36.54 272.304 35.42C271.104 34.26 269.584 33.68 267.744 33.68C266.424 33.68 265.144 34 263.904 34.64C262.664 35.24 261.624 36.22 260.784 37.58C259.984 38.94 259.584 40.76 259.584 43.04V59H253.164ZM307.052 39.74C307.052 37.74 306.492 36.2 305.372 35.12C304.292 34 302.792 33.44 300.872 33.44C299.072 33.44 297.532 33.86 296.252 34.7C294.972 35.54 294.032 36.9 293.432 38.78L288.032 36.5C288.792 34.06 290.272 32.1 292.472 30.62C294.712 29.14 297.592 28.4 301.112 28.4C303.512 28.4 305.632 28.8 307.472 29.6C309.312 30.36 310.752 31.52 311.792 33.08C312.872 34.64 313.412 36.64 313.412 39.08V52.46C313.412 53.94 314.152 54.68 315.632 54.68C316.352 54.68 317.052 54.58 317.732 54.38L317.372 58.82C316.452 59.26 315.292 59.48 313.892 59.48C312.612 59.48 311.452 59.26 310.412 58.82C309.412 58.34 308.612 57.64 308.012 56.72C307.452 55.76 307.172 54.58 307.172 53.18V52.76L308.492 52.7C308.132 54.26 307.392 55.56 306.272 56.6C305.152 57.6 303.852 58.36 302.372 58.88C300.892 59.36 299.392 59.6 297.872 59.6C295.992 59.6 294.292 59.3 292.772 58.7C291.292 58.1 290.112 57.2 289.232 56C288.392 54.76 287.972 53.24 287.972 51.44C287.972 49.2 288.692 47.36 290.132 45.92C291.612 44.48 293.692 43.5 296.372 42.98L308.012 40.7L307.952 45.2L299.492 46.94C297.812 47.26 296.552 47.72 295.712 48.32C294.872 48.92 294.452 49.8 294.452 50.96C294.452 52.08 294.872 52.98 295.712 53.66C296.592 54.3 297.752 54.62 299.192 54.62C300.192 54.62 301.152 54.5 302.072 54.26C303.032 54.02 303.892 53.64 304.652 53.12C305.412 52.56 305.992 51.86 306.392 51.02C306.832 50.14 307.052 49.1 307.052 47.9V39.74ZM329.571 15.5V50.6C329.571 52.08 329.831 53.1 330.351 53.66C330.871 54.22 331.731 54.5 332.931 54.5C333.651 54.5 334.251 54.46 334.731 54.38C335.251 54.26 335.891 54.06 336.651 53.78L335.931 58.58C335.251 58.9 334.471 59.14 333.591 59.3C332.711 59.5 331.831 59.6 330.951 59.6C328.271 59.6 326.291 58.92 325.011 57.56C323.771 56.16 323.151 54.02 323.151 51.14V15.5H329.571Z" fill="#9DA1A6"/>
<line x1="5" y1="3.5" x2="73" y2="3.5" stroke="#52BB7C" stroke-width="7"/>
<line x1="5" y1="75.5" x2="73" y2="75.5" stroke="#52BB7C" stroke-width="7"/>
</svg>
