<svg width="335" height="79" viewBox="0 0 335 79" fill="none" xmlns="http://www.w3.org/2000/svg">
<path d="M13.44 52.34H34.32V59H5.16V19.4H13.44V52.34ZM56.8552 18.8C60.4552 18.8 63.6152 19.42 66.3352 20.66C69.0552 21.9 71.3752 23.74 73.2952 26.18L68.6752 31.52C67.0352 29.44 65.2352 27.92 63.2752 26.96C61.3552 25.96 59.1152 25.46 56.5552 25.46C54.8752 25.46 53.4752 25.68 52.3552 26.12C51.2752 26.56 50.4752 27.14 49.9552 27.86C49.4752 28.58 49.2352 29.38 49.2352 30.26C49.2352 31.34 49.6552 32.26 50.4952 33.02C51.3352 33.74 52.7752 34.34 54.8152 34.82L62.1952 36.5C66.1152 37.38 68.9152 38.7 70.5952 40.46C72.3152 42.18 73.1752 44.42 73.1752 47.18C73.1752 49.78 72.4952 52.02 71.1352 53.9C69.7752 55.74 67.8752 57.16 65.4352 58.16C62.9952 59.12 60.1952 59.6 57.0352 59.6C54.2752 59.6 51.7352 59.28 49.4152 58.64C47.1352 57.96 45.0952 57.04 43.2952 55.88C41.4952 54.72 39.9952 53.38 38.7952 51.86L43.4752 46.28C44.3952 47.56 45.5352 48.7 46.8952 49.7C48.2552 50.7 49.7952 51.5 51.5152 52.1C53.2752 52.66 55.1152 52.94 57.0352 52.94C58.6752 52.94 60.0552 52.76 61.1752 52.4C62.3352 52 63.1952 51.46 63.7552 50.78C64.3552 50.06 64.6552 49.2 64.6552 48.2C64.6552 47.16 64.2952 46.28 63.5752 45.56C62.8952 44.8 61.6152 44.22 59.7352 43.82L51.6952 42.02C49.3752 41.46 47.3752 40.74 45.6952 39.86C44.0552 38.94 42.7952 37.78 41.9152 36.38C41.0752 34.94 40.6552 33.24 40.6552 31.28C40.6552 28.92 41.2952 26.8 42.5752 24.92C43.8552 23.04 45.6952 21.56 48.0952 20.48C50.5352 19.36 53.4552 18.8 56.8552 18.8Z" fill="black"/>
<path d="M108.46 19.4C111.14 19.4 113.46 19.9 115.42 20.9C117.42 21.86 118.98 23.24 120.1 25.04C121.22 26.84 121.78 28.98 121.78 31.46C121.78 33.94 121.22 36.08 120.1 37.88C118.98 39.68 117.42 41.08 115.42 42.08C113.46 43.04 111.14 43.52 108.46 43.52H99.28V59H94.48V19.4H108.46ZM107.74 39.02C110.86 39.02 113.14 38.38 114.58 37.1C116.02 35.78 116.74 33.9 116.74 31.46C116.74 28.98 116.02 27.1 114.58 25.82C113.14 24.54 110.86 23.9 107.74 23.9H99.28V39.02H107.74ZM141.614 59.6C138.774 59.6 136.234 58.98 133.994 57.74C131.794 56.5 130.074 54.72 128.834 52.4C127.594 50.04 126.974 47.24 126.974 44C126.974 40.76 127.594 37.98 128.834 35.66C130.074 33.3 131.774 31.5 133.934 30.26C136.094 29.02 138.554 28.4 141.314 28.4C144.114 28.4 146.494 29 148.454 30.2C150.454 31.4 151.974 33.04 153.014 35.12C154.054 37.16 154.574 39.46 154.574 42.02C154.574 42.7 154.554 43.32 154.514 43.88C154.474 44.44 154.414 44.94 154.334 45.38H130.094V41.12H152.234L149.774 41.6C149.774 38.72 148.974 36.5 147.374 34.94C145.814 33.38 143.754 32.6 141.194 32.6C139.234 32.6 137.534 33.06 136.094 33.98C134.694 34.86 133.594 36.16 132.794 37.88C132.034 39.56 131.654 41.6 131.654 44C131.654 46.36 132.054 48.4 132.854 50.12C133.654 51.84 134.774 53.16 136.214 54.08C137.694 54.96 139.454 55.4 141.494 55.4C143.694 55.4 145.474 54.98 146.834 54.14C148.234 53.3 149.354 52.16 150.194 50.72L153.974 52.94C153.214 54.3 152.234 55.48 151.034 56.48C149.874 57.48 148.494 58.26 146.894 58.82C145.334 59.34 143.574 59.6 141.614 59.6ZM163.103 59V29H167.003L167.663 33.92C168.503 32.08 169.723 30.7 171.323 29.78C172.963 28.86 174.943 28.4 177.263 28.4C177.783 28.4 178.343 28.44 178.943 28.52C179.583 28.6 180.123 28.76 180.563 29L179.723 33.38C179.283 33.22 178.803 33.1 178.283 33.02C177.763 32.94 177.023 32.9 176.063 32.9C174.823 32.9 173.563 33.26 172.283 33.98C171.043 34.7 170.003 35.8 169.163 37.28C168.323 38.72 167.903 40.56 167.903 42.8V59H163.103ZM196.506 59.6C193.586 59.6 190.886 58.98 188.406 57.74C185.966 56.5 184.086 54.74 182.766 52.46L186.846 49.52C187.726 51.36 189.006 52.8 190.686 53.84C192.406 54.88 194.466 55.4 196.866 55.4C198.986 55.4 200.646 55 201.846 54.2C203.046 53.36 203.646 52.28 203.646 50.96C203.646 50.12 203.366 49.36 202.806 48.68C202.286 47.96 201.266 47.44 199.746 47.12L192.546 45.62C189.626 45.02 187.526 44.02 186.246 42.62C185.006 41.22 184.386 39.48 184.386 37.4C184.386 35.76 184.846 34.26 185.766 32.9C186.726 31.54 188.066 30.46 189.786 29.66C191.546 28.82 193.606 28.4 195.966 28.4C198.926 28.4 201.426 28.98 203.466 30.14C205.506 31.3 207.026 32.94 208.026 35.06L204.006 37.7C203.326 35.94 202.226 34.66 200.706 33.86C199.186 33.02 197.606 32.6 195.966 32.6C194.526 32.6 193.286 32.8 192.246 33.2C191.246 33.6 190.466 34.16 189.906 34.88C189.386 35.56 189.126 36.34 189.126 37.22C189.126 38.1 189.426 38.92 190.026 39.68C190.626 40.4 191.746 40.92 193.386 41.24L200.886 42.8C203.686 43.36 205.646 44.28 206.766 45.56C207.886 46.84 208.446 48.4 208.446 50.24C208.446 52.12 207.946 53.78 206.946 55.22C205.946 56.62 204.546 57.7 202.746 58.46C200.946 59.22 198.866 59.6 196.506 59.6ZM229.166 28.4C232.006 28.4 234.506 29.02 236.666 30.26C238.866 31.5 240.586 33.3 241.826 35.66C243.066 37.98 243.686 40.76 243.686 44C243.686 47.24 243.066 50.04 241.826 52.4C240.586 54.72 238.866 56.5 236.666 57.74C234.506 58.98 232.006 59.6 229.166 59.6C226.366 59.6 223.866 58.98 221.666 57.74C219.466 56.5 217.746 54.72 216.506 52.4C215.266 50.04 214.646 47.24 214.646 44C214.646 40.76 215.266 37.98 216.506 35.66C217.746 33.3 219.466 31.5 221.666 30.26C223.866 29.02 226.366 28.4 229.166 28.4ZM229.166 32.54C227.126 32.54 225.386 33 223.946 33.92C222.506 34.84 221.386 36.16 220.586 37.88C219.826 39.56 219.446 41.6 219.446 44C219.446 46.36 219.826 48.4 220.586 50.12C221.386 51.84 222.506 53.16 223.946 54.08C225.386 55 227.126 55.46 229.166 55.46C231.206 55.46 232.946 55 234.386 54.08C235.826 53.16 236.926 51.84 237.686 50.12C238.486 48.4 238.886 46.36 238.886 44C238.886 41.6 238.486 39.56 237.686 37.88C236.926 36.16 235.826 34.84 234.386 33.92C232.946 33 231.206 32.54 229.166 32.54ZM252.123 59V29H256.323L256.743 35.72L255.963 35.06C256.603 33.46 257.463 32.18 258.543 31.22C259.623 30.22 260.863 29.5 262.263 29.06C263.703 28.62 265.183 28.4 266.703 28.4C268.863 28.4 270.823 28.82 272.583 29.66C274.343 30.46 275.743 31.7 276.783 33.38C277.863 35.06 278.403 37.2 278.403 39.8V59H273.603V41.48C273.603 38.16 272.883 35.86 271.443 34.58C270.043 33.26 268.303 32.6 266.223 32.6C264.783 32.6 263.343 32.94 261.903 33.62C260.463 34.3 259.263 35.4 258.303 36.92C257.383 38.44 256.923 40.48 256.923 43.04V59H252.123ZM306.191 39.62C306.191 37.38 305.591 35.66 304.391 34.46C303.191 33.22 301.491 32.6 299.291 32.6C297.211 32.6 295.451 33.06 294.011 33.98C292.571 34.86 291.511 36.3 290.831 38.3L286.931 35.9C287.731 33.66 289.211 31.86 291.371 30.5C293.531 29.1 296.211 28.4 299.411 28.4C301.571 28.4 303.531 28.78 305.291 29.54C307.051 30.26 308.431 31.38 309.431 32.9C310.471 34.38 310.991 36.3 310.991 38.66V53.18C310.991 54.62 311.751 55.34 313.271 55.34C314.031 55.34 314.771 55.24 315.491 55.04L315.251 58.82C314.451 59.22 313.411 59.42 312.131 59.42C310.971 59.42 309.931 59.2 309.011 58.76C308.091 58.32 307.371 57.66 306.851 56.78C306.331 55.86 306.071 54.72 306.071 53.36V52.76L307.271 52.94C306.791 54.5 305.971 55.78 304.811 56.78C303.651 57.74 302.351 58.46 300.911 58.94C299.471 59.38 298.051 59.6 296.651 59.6C294.891 59.6 293.251 59.3 291.731 58.7C290.211 58.1 288.991 57.2 288.071 56C287.191 54.76 286.751 53.24 286.751 51.44C286.751 49.2 287.491 47.36 288.971 45.92C290.491 44.44 292.591 43.44 295.271 42.92L307.151 40.58V44.54L297.491 46.52C295.531 46.92 294.071 47.48 293.111 48.2C292.151 48.92 291.671 49.92 291.671 51.2C291.671 52.44 292.151 53.46 293.111 54.26C294.111 55.02 295.511 55.4 297.311 55.4C298.471 55.4 299.571 55.26 300.611 54.98C301.691 54.66 302.651 54.2 303.491 53.6C304.331 52.96 304.991 52.18 305.471 51.26C305.951 50.3 306.191 49.18 306.191 47.9V39.62ZM326.616 15.2V51.38C326.616 52.9 326.896 53.96 327.456 54.56C328.016 55.12 328.916 55.4 330.156 55.4C330.956 55.4 331.616 55.34 332.136 55.22C332.656 55.1 333.356 54.88 334.236 54.56L333.456 58.76C332.816 59.04 332.116 59.24 331.356 59.36C330.596 59.52 329.816 59.6 329.016 59.6C326.576 59.6 324.756 58.94 323.556 57.62C322.396 56.3 321.816 54.28 321.816 51.56V15.2H326.616Z" fill="#9DA1A6"/>
<line x1="5" y1="3.5" x2="73" y2="3.5" stroke="black" stroke-width="7"/>
<line x1="5" y1="75.5" x2="73" y2="75.5" stroke="black" stroke-width="7"/>
</svg>
