<svg width="338" height="71" viewBox="0 0 338 71" fill="none" xmlns="http://www.w3.org/2000/svg">
<path d="M12.3 49.48H34.14V55H5.88V15.4H12.3V49.48ZM56.498 14.8C60.058 14.8 63.138 15.48 65.738 16.84C68.338 18.16 70.538 20.12 72.338 22.72L68.018 26.86C66.498 24.54 64.778 22.88 62.858 21.88C60.978 20.84 58.738 20.32 56.138 20.32C54.218 20.32 52.638 20.58 51.398 21.1C50.158 21.62 49.238 22.32 48.638 23.2C48.078 24.04 47.798 25 47.798 26.08C47.798 27.32 48.218 28.4 49.058 29.32C49.938 30.24 51.558 30.96 53.918 31.48L61.958 33.28C65.798 34.12 68.518 35.4 70.118 37.12C71.718 38.84 72.518 41.02 72.518 43.66C72.518 46.1 71.858 48.22 70.538 50.02C69.218 51.82 67.378 53.2 65.018 54.16C62.698 55.12 59.958 55.6 56.798 55.6C53.998 55.6 51.478 55.24 49.238 54.52C46.998 53.8 45.038 52.82 43.358 51.58C41.678 50.34 40.298 48.92 39.218 47.32L43.658 42.88C44.498 44.28 45.558 45.54 46.838 46.66C48.118 47.74 49.598 48.58 51.278 49.18C52.998 49.78 54.898 50.08 56.978 50.08C58.818 50.08 60.398 49.86 61.718 49.42C63.078 48.98 64.098 48.34 64.778 47.5C65.498 46.62 65.858 45.58 65.858 44.38C65.858 43.22 65.458 42.2 64.658 41.32C63.898 40.44 62.458 39.76 60.338 39.28L51.638 37.3C49.238 36.78 47.258 36.04 45.698 35.08C44.138 34.12 42.978 32.96 42.218 31.6C41.458 30.2 41.078 28.64 41.078 26.92C41.078 24.68 41.678 22.66 42.878 20.86C44.118 19.02 45.898 17.56 48.218 16.48C50.538 15.36 53.298 14.8 56.498 14.8Z" fill="black"/>
<path d="M109.12 15.4C111.96 15.4 114.4 15.9 116.44 16.9C118.52 17.9 120.14 19.32 121.3 21.16C122.46 23 123.04 25.22 123.04 27.82C123.04 30.38 122.46 32.6 121.3 34.48C120.14 36.32 118.52 37.74 116.44 38.74C114.4 39.74 111.96 40.24 109.12 40.24H100.3V55H93.88V15.4H109.12ZM108.1 34.72C110.94 34.72 113.02 34.14 114.34 32.98C115.7 31.78 116.38 30.06 116.38 27.82C116.38 25.54 115.7 23.82 114.34 22.66C113.02 21.46 110.94 20.86 108.1 20.86H100.3V34.72H108.1ZM142.553 55.6C139.553 55.6 136.913 54.98 134.633 53.74C132.353 52.5 130.573 50.72 129.293 48.4C128.053 46.04 127.433 43.24 127.433 40C127.433 36.76 128.053 33.98 129.293 31.66C130.573 29.3 132.333 27.5 134.573 26.26C136.813 25.02 139.353 24.4 142.193 24.4C145.113 24.4 147.593 25 149.633 26.2C151.673 27.4 153.233 29.04 154.313 31.12C155.393 33.2 155.933 35.56 155.933 38.2C155.933 38.92 155.913 39.6 155.873 40.24C155.833 40.88 155.773 41.44 155.693 41.92H131.573V37H152.873L149.693 37.96C149.693 35.24 149.013 33.16 147.653 31.72C146.293 30.24 144.433 29.5 142.073 29.5C140.353 29.5 138.853 29.9 137.573 30.7C136.293 31.5 135.313 32.7 134.633 34.3C133.953 35.86 133.613 37.78 133.613 40.06C133.613 42.3 133.973 44.2 134.693 45.76C135.413 47.32 136.433 48.5 137.753 49.3C139.073 50.1 140.633 50.5 142.433 50.5C144.433 50.5 146.053 50.12 147.293 49.36C148.533 48.6 149.513 47.54 150.233 46.18L155.333 48.58C154.613 50.02 153.633 51.28 152.393 52.36C151.193 53.4 149.753 54.2 148.073 54.76C146.393 55.32 144.553 55.6 142.553 55.6ZM163.44 55V25H168.9L169.5 30.4C170.3 28.44 171.48 26.96 173.04 25.96C174.64 24.92 176.6 24.4 178.92 24.4C179.52 24.4 180.12 24.46 180.72 24.58C181.32 24.66 181.82 24.8 182.22 25L181.32 30.64C180.88 30.48 180.38 30.36 179.82 30.28C179.3 30.16 178.58 30.1 177.66 30.1C176.42 30.1 175.2 30.44 174 31.12C172.8 31.76 171.8 32.74 171 34.06C170.24 35.38 169.86 37.06 169.86 39.1V55H163.44ZM198.088 55.6C195.088 55.6 192.348 55.02 189.868 53.86C187.388 52.7 185.428 51.06 183.988 48.94L188.428 45.1C189.308 46.74 190.568 48.06 192.208 49.06C193.888 50.02 195.888 50.5 198.208 50.5C200.048 50.5 201.508 50.18 202.588 49.54C203.668 48.9 204.208 48 204.208 46.84C204.208 46.08 203.948 45.42 203.428 44.86C202.948 44.26 202.008 43.8 200.608 43.48L194.308 42.16C191.108 41.52 188.828 40.5 187.468 39.1C186.108 37.66 185.428 35.84 185.428 33.64C185.428 32 185.908 30.48 186.868 29.08C187.828 27.68 189.228 26.56 191.068 25.72C192.948 24.84 195.188 24.4 197.788 24.4C200.788 24.4 203.348 24.94 205.468 26.02C207.588 27.06 209.208 28.56 210.328 30.52L205.888 34.24C205.128 32.64 204.008 31.46 202.528 30.7C201.048 29.9 199.508 29.5 197.908 29.5C196.628 29.5 195.528 29.66 194.608 29.98C193.688 30.3 192.988 30.74 192.508 31.3C192.028 31.86 191.788 32.52 191.788 33.28C191.788 34.08 192.088 34.78 192.688 35.38C193.288 35.98 194.368 36.44 195.928 36.76L202.768 38.2C205.648 38.76 207.668 39.72 208.828 41.08C210.028 42.4 210.628 44.02 210.628 45.94C210.628 47.86 210.128 49.56 209.128 51.04C208.128 52.48 206.688 53.6 204.808 54.4C202.928 55.2 200.688 55.6 198.088 55.6ZM230.807 24.4C233.727 24.4 236.307 25.02 238.547 26.26C240.787 27.5 242.527 29.3 243.767 31.66C245.047 33.98 245.687 36.76 245.687 40C245.687 43.24 245.047 46.04 243.767 48.4C242.527 50.72 240.787 52.5 238.547 53.74C236.307 54.98 233.727 55.6 230.807 55.6C227.887 55.6 225.307 54.98 223.067 53.74C220.827 52.5 219.067 50.72 217.787 48.4C216.507 46.04 215.867 43.24 215.867 40C215.867 36.76 216.507 33.98 217.787 31.66C219.067 29.3 220.827 27.5 223.067 26.26C225.307 25.02 227.887 24.4 230.807 24.4ZM230.807 29.44C229.007 29.44 227.467 29.86 226.187 30.7C224.947 31.5 223.987 32.68 223.307 34.24C222.627 35.8 222.287 37.72 222.287 40C222.287 42.24 222.627 44.16 223.307 45.76C223.987 47.32 224.947 48.52 226.187 49.36C227.467 50.16 229.007 50.56 230.807 50.56C232.607 50.56 234.127 50.16 235.367 49.36C236.607 48.52 237.567 47.32 238.247 45.76C238.927 44.16 239.267 42.24 239.267 40C239.267 37.72 238.927 35.8 238.247 34.24C237.567 32.68 236.607 31.5 235.367 30.7C234.127 29.86 232.607 29.44 230.807 29.44ZM253.164 55V25H258.864L259.284 32.8L258.444 31.96C259.004 30.24 259.804 28.82 260.844 27.7C261.924 26.54 263.184 25.7 264.624 25.18C266.104 24.66 267.664 24.4 269.304 24.4C271.424 24.4 273.324 24.82 275.004 25.66C276.724 26.46 278.084 27.68 279.084 29.32C280.084 30.96 280.584 33.04 280.584 35.56V55H274.164V37.54C274.164 34.58 273.544 32.54 272.304 31.42C271.104 30.26 269.584 29.68 267.744 29.68C266.424 29.68 265.144 30 263.904 30.64C262.664 31.24 261.624 32.22 260.784 33.58C259.984 34.94 259.584 36.76 259.584 39.04V55H253.164ZM307.052 35.74C307.052 33.74 306.492 32.2 305.372 31.12C304.292 30 302.792 29.44 300.872 29.44C299.072 29.44 297.532 29.86 296.252 30.7C294.972 31.54 294.032 32.9 293.432 34.78L288.032 32.5C288.792 30.06 290.272 28.1 292.472 26.62C294.712 25.14 297.592 24.4 301.112 24.4C303.512 24.4 305.632 24.8 307.472 25.6C309.312 26.36 310.752 27.52 311.792 29.08C312.872 30.64 313.412 32.64 313.412 35.08V48.46C313.412 49.94 314.152 50.68 315.632 50.68C316.352 50.68 317.052 50.58 317.732 50.38L317.372 54.82C316.452 55.26 315.292 55.48 313.892 55.48C312.612 55.48 311.452 55.26 310.412 54.82C309.412 54.34 308.612 53.64 308.012 52.72C307.452 51.76 307.172 50.58 307.172 49.18V48.76L308.492 48.7C308.132 50.26 307.392 51.56 306.272 52.6C305.152 53.6 303.852 54.36 302.372 54.88C300.892 55.36 299.392 55.6 297.872 55.6C295.992 55.6 294.292 55.3 292.772 54.7C291.292 54.1 290.112 53.2 289.232 52C288.392 50.76 287.972 49.24 287.972 47.44C287.972 45.2 288.692 43.36 290.132 41.92C291.612 40.48 293.692 39.5 296.372 38.98L308.012 36.7L307.952 41.2L299.492 42.94C297.812 43.26 296.552 43.72 295.712 44.32C294.872 44.92 294.452 45.8 294.452 46.96C294.452 48.08 294.872 48.98 295.712 49.66C296.592 50.3 297.752 50.62 299.192 50.62C300.192 50.62 301.152 50.5 302.072 50.26C303.032 50.02 303.892 49.64 304.652 49.12C305.412 48.56 305.992 47.86 306.392 47.02C306.832 46.14 307.052 45.1 307.052 43.9V35.74ZM329.571 11.5V46.6C329.571 48.08 329.831 49.1 330.351 49.66C330.871 50.22 331.731 50.5 332.931 50.5C333.651 50.5 334.251 50.46 334.731 50.38C335.251 50.26 335.891 50.06 336.651 49.78L335.931 54.58C335.251 54.9 334.471 55.14 333.591 55.3C332.711 55.5 331.831 55.6 330.951 55.6C328.271 55.6 326.291 54.92 325.011 53.56C323.771 52.16 323.151 50.02 323.151 47.14V11.5H329.571Z" fill="#9DA1A6"/>
<line x1="6" y1="3" x2="72" y2="3" stroke="black" stroke-width="6"/>
<line x1="6" y1="68" x2="72" y2="68" stroke="black" stroke-width="6"/>
</svg>
