<svg width="76" height="79" viewBox="0 0 76 79" fill="none" xmlns="http://www.w3.org/2000/svg">
<path d="M13.44 52.34H34.32V59H5.16V19.4H13.44V52.34ZM56.8552 18.8C60.4552 18.8 63.6152 19.42 66.3352 20.66C69.0552 21.9 71.3752 23.74 73.2952 26.18L68.6752 31.52C67.0352 29.44 65.2352 27.92 63.2752 26.96C61.3552 25.96 59.1152 25.46 56.5552 25.46C54.8752 25.46 53.4752 25.68 52.3552 26.12C51.2752 26.56 50.4752 27.14 49.9552 27.86C49.4752 28.58 49.2352 29.38 49.2352 30.26C49.2352 31.34 49.6552 32.26 50.4952 33.02C51.3352 33.74 52.7752 34.34 54.8152 34.82L62.1952 36.5C66.1152 37.38 68.9152 38.7 70.5952 40.46C72.3152 42.18 73.1752 44.42 73.1752 47.18C73.1752 49.78 72.4952 52.02 71.1352 53.9C69.7752 55.74 67.8752 57.16 65.4352 58.16C62.9952 59.12 60.1952 59.6 57.0352 59.6C54.2752 59.6 51.7352 59.28 49.4152 58.64C47.1352 57.96 45.0952 57.04 43.2952 55.88C41.4952 54.72 39.9952 53.38 38.7952 51.86L43.4752 46.28C44.3952 47.56 45.5352 48.7 46.8952 49.7C48.2552 50.7 49.7952 51.5 51.5152 52.1C53.2752 52.66 55.1152 52.94 57.0352 52.94C58.6752 52.94 60.0552 52.76 61.1752 52.4C62.3352 52 63.1952 51.46 63.7552 50.78C64.3552 50.06 64.6552 49.2 64.6552 48.2C64.6552 47.16 64.2952 46.28 63.5752 45.56C62.8952 44.8 61.6152 44.22 59.7352 43.82L51.6952 42.02C49.3752 41.46 47.3752 40.74 45.6952 39.86C44.0552 38.94 42.7952 37.78 41.9152 36.38C41.0752 34.94 40.6552 33.24 40.6552 31.28C40.6552 28.92 41.2952 26.8 42.5752 24.92C43.8552 23.04 45.6952 21.56 48.0952 20.48C50.5352 19.36 53.4552 18.8 56.8552 18.8Z" fill="black"/>
<line x1="5" y1="3.5" x2="73" y2="3.5" stroke="#52BB7C" stroke-width="7"/>
<line x1="5" y1="75.5" x2="73" y2="75.5" stroke="#52BB7C" stroke-width="7"/>
</svg>
