<svg width="76" height="71" viewBox="0 0 76 71" fill="none" xmlns="http://www.w3.org/2000/svg">
<path d="M12.3 49.48H34.14V55H5.88V15.4H12.3V49.48ZM56.498 14.8C60.058 14.8 63.138 15.48 65.738 16.84C68.338 18.16 70.538 20.12 72.338 22.72L68.018 26.86C66.498 24.54 64.778 22.88 62.858 21.88C60.978 20.84 58.738 20.32 56.138 20.32C54.218 20.32 52.638 20.58 51.398 21.1C50.158 21.62 49.238 22.32 48.638 23.2C48.078 24.04 47.798 25 47.798 26.08C47.798 27.32 48.218 28.4 49.058 29.32C49.938 30.24 51.558 30.96 53.918 31.48L61.958 33.28C65.798 34.12 68.518 35.4 70.118 37.12C71.718 38.84 72.518 41.02 72.518 43.66C72.518 46.1 71.858 48.22 70.538 50.02C69.218 51.82 67.378 53.2 65.018 54.16C62.698 55.12 59.958 55.6 56.798 55.6C53.998 55.6 51.478 55.24 49.238 54.52C46.998 53.8 45.038 52.82 43.358 51.58C41.678 50.34 40.298 48.92 39.218 47.32L43.658 42.88C44.498 44.28 45.558 45.54 46.838 46.66C48.118 47.74 49.598 48.58 51.278 49.18C52.998 49.78 54.898 50.08 56.978 50.08C58.818 50.08 60.398 49.86 61.718 49.42C63.078 48.98 64.098 48.34 64.778 47.5C65.498 46.62 65.858 45.58 65.858 44.38C65.858 43.22 65.458 42.2 64.658 41.32C63.898 40.44 62.458 39.76 60.338 39.28L51.638 37.3C49.238 36.78 47.258 36.04 45.698 35.08C44.138 34.12 42.978 32.96 42.218 31.6C41.458 30.2 41.078 28.64 41.078 26.92C41.078 24.68 41.678 22.66 42.878 20.86C44.118 19.02 45.898 17.56 48.218 16.48C50.538 15.36 53.298 14.8 56.498 14.8Z" fill="black"/>
<line x1="6" y1="3" x2="72" y2="3" stroke="#52BB7C" stroke-width="6"/>
<line x1="6" y1="68" x2="72" y2="68" stroke="#52BB7C" stroke-width="6"/>
</svg>
