<svg width="335" height="71" viewBox="0 0 335 71" fill="none" xmlns="http://www.w3.org/2000/svg">
<path d="M12.3 49.48H34.14V55H5.88V15.4H12.3V49.48ZM56.498 14.8C60.058 14.8 63.138 15.48 65.738 16.84C68.338 18.16 70.538 20.12 72.338 22.72L68.018 26.86C66.498 24.54 64.778 22.88 62.858 21.88C60.978 20.84 58.738 20.32 56.138 20.32C54.218 20.32 52.638 20.58 51.398 21.1C50.158 21.62 49.238 22.32 48.638 23.2C48.078 24.04 47.798 25 47.798 26.08C47.798 27.32 48.218 28.4 49.058 29.32C49.938 30.24 51.558 30.96 53.918 31.48L61.958 33.28C65.798 34.12 68.518 35.4 70.118 37.12C71.718 38.84 72.518 41.02 72.518 43.66C72.518 46.1 71.858 48.22 70.538 50.02C69.218 51.82 67.378 53.2 65.018 54.16C62.698 55.12 59.958 55.6 56.798 55.6C53.998 55.6 51.478 55.24 49.238 54.52C46.998 53.8 45.038 52.82 43.358 51.58C41.678 50.34 40.298 48.92 39.218 47.32L43.658 42.88C44.498 44.28 45.558 45.54 46.838 46.66C48.118 47.74 49.598 48.58 51.278 49.18C52.998 49.78 54.898 50.08 56.978 50.08C58.818 50.08 60.398 49.86 61.718 49.42C63.078 48.98 64.098 48.34 64.778 47.5C65.498 46.62 65.858 45.58 65.858 44.38C65.858 43.22 65.458 42.2 64.658 41.32C63.898 40.44 62.458 39.76 60.338 39.28L51.638 37.3C49.238 36.78 47.258 36.04 45.698 35.08C44.138 34.12 42.978 32.96 42.218 31.6C41.458 30.2 41.078 28.64 41.078 26.92C41.078 24.68 41.678 22.66 42.878 20.86C44.118 19.02 45.898 17.56 48.218 16.48C50.538 15.36 53.298 14.8 56.498 14.8Z" fill="black"/>
<path d="M108.46 15.4C111.14 15.4 113.46 15.9 115.42 16.9C117.42 17.86 118.98 19.24 120.1 21.04C121.22 22.84 121.78 24.98 121.78 27.46C121.78 29.94 121.22 32.08 120.1 33.88C118.98 35.68 117.42 37.08 115.42 38.08C113.46 39.04 111.14 39.52 108.46 39.52H99.28V55H94.48V15.4H108.46ZM107.74 35.02C110.86 35.02 113.14 34.38 114.58 33.1C116.02 31.78 116.74 29.9 116.74 27.46C116.74 24.98 116.02 23.1 114.58 21.82C113.14 20.54 110.86 19.9 107.74 19.9H99.28V35.02H107.74ZM141.614 55.6C138.774 55.6 136.234 54.98 133.994 53.74C131.794 52.5 130.074 50.72 128.834 48.4C127.594 46.04 126.974 43.24 126.974 40C126.974 36.76 127.594 33.98 128.834 31.66C130.074 29.3 131.774 27.5 133.934 26.26C136.094 25.02 138.554 24.4 141.314 24.4C144.114 24.4 146.494 25 148.454 26.2C150.454 27.4 151.974 29.04 153.014 31.12C154.054 33.16 154.574 35.46 154.574 38.02C154.574 38.7 154.554 39.32 154.514 39.88C154.474 40.44 154.414 40.94 154.334 41.38H130.094V37.12H152.234L149.774 37.6C149.774 34.72 148.974 32.5 147.374 30.94C145.814 29.38 143.754 28.6 141.194 28.6C139.234 28.6 137.534 29.06 136.094 29.98C134.694 30.86 133.594 32.16 132.794 33.88C132.034 35.56 131.654 37.6 131.654 40C131.654 42.36 132.054 44.4 132.854 46.12C133.654 47.84 134.774 49.16 136.214 50.08C137.694 50.96 139.454 51.4 141.494 51.4C143.694 51.4 145.474 50.98 146.834 50.14C148.234 49.3 149.354 48.16 150.194 46.72L153.974 48.94C153.214 50.3 152.234 51.48 151.034 52.48C149.874 53.48 148.494 54.26 146.894 54.82C145.334 55.34 143.574 55.6 141.614 55.6ZM163.103 55V25H167.003L167.663 29.92C168.503 28.08 169.723 26.7 171.323 25.78C172.963 24.86 174.943 24.4 177.263 24.4C177.783 24.4 178.343 24.44 178.943 24.52C179.583 24.6 180.123 24.76 180.563 25L179.723 29.38C179.283 29.22 178.803 29.1 178.283 29.02C177.763 28.94 177.023 28.9 176.063 28.9C174.823 28.9 173.563 29.26 172.283 29.98C171.043 30.7 170.003 31.8 169.163 33.28C168.323 34.72 167.903 36.56 167.903 38.8V55H163.103ZM196.506 55.6C193.586 55.6 190.886 54.98 188.406 53.74C185.966 52.5 184.086 50.74 182.766 48.46L186.846 45.52C187.726 47.36 189.006 48.8 190.686 49.84C192.406 50.88 194.466 51.4 196.866 51.4C198.986 51.4 200.646 51 201.846 50.2C203.046 49.36 203.646 48.28 203.646 46.96C203.646 46.12 203.366 45.36 202.806 44.68C202.286 43.96 201.266 43.44 199.746 43.12L192.546 41.62C189.626 41.02 187.526 40.02 186.246 38.62C185.006 37.22 184.386 35.48 184.386 33.4C184.386 31.76 184.846 30.26 185.766 28.9C186.726 27.54 188.066 26.46 189.786 25.66C191.546 24.82 193.606 24.4 195.966 24.4C198.926 24.4 201.426 24.98 203.466 26.14C205.506 27.3 207.026 28.94 208.026 31.06L204.006 33.7C203.326 31.94 202.226 30.66 200.706 29.86C199.186 29.02 197.606 28.6 195.966 28.6C194.526 28.6 193.286 28.8 192.246 29.2C191.246 29.6 190.466 30.16 189.906 30.88C189.386 31.56 189.126 32.34 189.126 33.22C189.126 34.1 189.426 34.92 190.026 35.68C190.626 36.4 191.746 36.92 193.386 37.24L200.886 38.8C203.686 39.36 205.646 40.28 206.766 41.56C207.886 42.84 208.446 44.4 208.446 46.24C208.446 48.12 207.946 49.78 206.946 51.22C205.946 52.62 204.546 53.7 202.746 54.46C200.946 55.22 198.866 55.6 196.506 55.6ZM229.166 24.4C232.006 24.4 234.506 25.02 236.666 26.26C238.866 27.5 240.586 29.3 241.826 31.66C243.066 33.98 243.686 36.76 243.686 40C243.686 43.24 243.066 46.04 241.826 48.4C240.586 50.72 238.866 52.5 236.666 53.74C234.506 54.98 232.006 55.6 229.166 55.6C226.366 55.6 223.866 54.98 221.666 53.74C219.466 52.5 217.746 50.72 216.506 48.4C215.266 46.04 214.646 43.24 214.646 40C214.646 36.76 215.266 33.98 216.506 31.66C217.746 29.3 219.466 27.5 221.666 26.26C223.866 25.02 226.366 24.4 229.166 24.4ZM229.166 28.54C227.126 28.54 225.386 29 223.946 29.92C222.506 30.84 221.386 32.16 220.586 33.88C219.826 35.56 219.446 37.6 219.446 40C219.446 42.36 219.826 44.4 220.586 46.12C221.386 47.84 222.506 49.16 223.946 50.08C225.386 51 227.126 51.46 229.166 51.46C231.206 51.46 232.946 51 234.386 50.08C235.826 49.16 236.926 47.84 237.686 46.12C238.486 44.4 238.886 42.36 238.886 40C238.886 37.6 238.486 35.56 237.686 33.88C236.926 32.16 235.826 30.84 234.386 29.92C232.946 29 231.206 28.54 229.166 28.54ZM252.123 55V25H256.323L256.743 31.72L255.963 31.06C256.603 29.46 257.463 28.18 258.543 27.22C259.623 26.22 260.863 25.5 262.263 25.06C263.703 24.62 265.183 24.4 266.703 24.4C268.863 24.4 270.823 24.82 272.583 25.66C274.343 26.46 275.743 27.7 276.783 29.38C277.863 31.06 278.403 33.2 278.403 35.8V55H273.603V37.48C273.603 34.16 272.883 31.86 271.443 30.58C270.043 29.26 268.303 28.6 266.223 28.6C264.783 28.6 263.343 28.94 261.903 29.62C260.463 30.3 259.263 31.4 258.303 32.92C257.383 34.44 256.923 36.48 256.923 39.04V55H252.123ZM306.191 35.62C306.191 33.38 305.591 31.66 304.391 30.46C303.191 29.22 301.491 28.6 299.291 28.6C297.211 28.6 295.451 29.06 294.011 29.98C292.571 30.86 291.511 32.3 290.831 34.3L286.931 31.9C287.731 29.66 289.211 27.86 291.371 26.5C293.531 25.1 296.211 24.4 299.411 24.4C301.571 24.4 303.531 24.78 305.291 25.54C307.051 26.26 308.431 27.38 309.431 28.9C310.471 30.38 310.991 32.3 310.991 34.66V49.18C310.991 50.62 311.751 51.34 313.271 51.34C314.031 51.34 314.771 51.24 315.491 51.04L315.251 54.82C314.451 55.22 313.411 55.42 312.131 55.42C310.971 55.42 309.931 55.2 309.011 54.76C308.091 54.32 307.371 53.66 306.851 52.78C306.331 51.86 306.071 50.72 306.071 49.36V48.76L307.271 48.94C306.791 50.5 305.971 51.78 304.811 52.78C303.651 53.74 302.351 54.46 300.911 54.94C299.471 55.38 298.051 55.6 296.651 55.6C294.891 55.6 293.251 55.3 291.731 54.7C290.211 54.1 288.991 53.2 288.071 52C287.191 50.76 286.751 49.24 286.751 47.44C286.751 45.2 287.491 43.36 288.971 41.92C290.491 40.44 292.591 39.44 295.271 38.92L307.151 36.58V40.54L297.491 42.52C295.531 42.92 294.071 43.48 293.111 44.2C292.151 44.92 291.671 45.92 291.671 47.2C291.671 48.44 292.151 49.46 293.111 50.26C294.111 51.02 295.511 51.4 297.311 51.4C298.471 51.4 299.571 51.26 300.611 50.98C301.691 50.66 302.651 50.2 303.491 49.6C304.331 48.96 304.991 48.18 305.471 47.26C305.951 46.3 306.191 45.18 306.191 43.9V35.62ZM326.616 11.2V47.38C326.616 48.9 326.896 49.96 327.456 50.56C328.016 51.12 328.916 51.4 330.156 51.4C330.956 51.4 331.616 51.34 332.136 51.22C332.656 51.1 333.356 50.88 334.236 50.56L333.456 54.76C332.816 55.04 332.116 55.24 331.356 55.36C330.596 55.52 329.816 55.6 329.016 55.6C326.576 55.6 324.756 54.94 323.556 53.62C322.396 52.3 321.816 50.28 321.816 47.56V11.2H326.616Z" fill="#9DA1A6"/>
<line x1="6" y1="3" x2="72" y2="3" stroke="#52BB7C" stroke-width="6"/>
<line x1="6" y1="68" x2="72" y2="68" stroke="#52BB7C" stroke-width="6"/>
</svg>
